HIERARCHY
ROOT Hips
{
	OFFSET 0.000000 0.000000 0.000000
	CHANNELS 6 Xposition Yposition Zposition Zrotation Yrotation Xrotation 
	JOINT LHipJoint
	{
		OFFSET 0.000000 0.000000 0.000000
		CHANNELS 3 Zrotation Yrotation Xrotation
		JOINT LeftUpLeg
		{
			OFFSET 1.363060 -1.794630 0.839290
			CHANNELS 3 Zrotation Yrotation Xrotation
			JOINT LeftLeg
			{
				OFFSET 2.448110 -6.726130 0.000000
				CHANNELS 3 Zrotation Yrotation Xrotation
				JOINT LeftFoot
				{
					OFFSET 2.562200 -7.039590 0.000000
					CHANNELS 3 Zrotation Yrotation Xrotation
					JOINT LeftToeBase
					{
						OFFSET 0.157640 -0.433110 2.322550
						CHANNELS 3 Zrotation Yrotation Xrotation
						End Site
						{
							OFFSET 0.000000 0.000000 0.000000
						}
					}
				}
			}
		}
	}
	JOINT RHipJoint
	{
		OFFSET 0.000000 0.000000 0.000000
		CHANNELS 3 Zrotation Yrotation Xrotation
		JOINT RightUpLeg
		{
			OFFSET -1.305520 -1.794630 0.839290
			CHANNELS 3 Zrotation Yrotation Xrotation
			JOINT RightLeg
			{
				OFFSET -2.542530 -6.985550 0.000000
				CHANNELS 3 Zrotation Yrotation Xrotation
				JOINT RightFoot
				{
					OFFSET -2.568260 -7.056230 0.000000
					CHANNELS 3 Zrotation Yrotation Xrotation
					JOINT RightToeBase
					{
						OFFSET -0.164730 -0.452590 2.363150
						CHANNELS 3 Zrotation Yrotation Xrotation
						End Site
						{
							OFFSET 0.000000 0.000000 0.000000
						}
					}
				}
			}
		}
	}
}
MOTION
Frames: 16
Frame Time: 0.008333
-0.894745 15.341097 0.091153 27.039397 79.926081 50.131788 -9.347870 -0.621900 -5.152164 -14.374283 9.769108 -48.834871 -1.865082 4.419937 62.780392 2.650634 9.612959 -28.417766 -4.005500 -0.000000 -45.091000 11.638604 2.878098 -5.377338 5.892712 -9.998297 -57.783411 -3.051613 -7.686827 92.099351 -1.230818 -4.346810 -19.609922 0.904400 0.000000 -36.920700
-0.705603 15.420157 0.156662 26.438131 79.570807 49.377086 -9.397115 -0.500167 -5.206997 -14.099271 10.142353 -47.021123 -1.963996 4.258096 61.291371 2.684539 10.007586 -28.097785 -4.079800 -0.000000 -45.631000 11.469430 3.006524 -5.200712 6.323388 -9.602507 -58.860365 -2.794943 -7.588725 90.503938 -1.324265 -4.693665 -19.813495 0.994200 -0.000000 -36.382800
-0.512327 15.506328 0.224615 25.761664 79.178284 48.589291 -9.444472 -0.375666 -5.226872 -13.806884 10.431080 -45.195767 -2.046433 4.080943 59.675393 2.715122 10.455597 -27.557536 -4.117600 0.000000 -46.205600 11.291367 3.118194 -5.008894 6.766595 -9.217382 -59.872722 -2.516620 -7.472422 88.666847 -1.436455 -5.127948 -19.923103 1.090900 0.000000 -35.880500
-0.314837 15.598933 0.295063 25.000888 78.753205 47.760228 -9.493304 -0.249687 -5.212252 -13.492324 10.644891 -43.385314 -2.107803 3.894250 57.966998 2.736655 10.934811 -26.762919 -4.097800 0.000000 -46.911400 11.103757 3.208023 -4.801825 7.237930 -8.840362 -60.808596 -2.219296 -7.336405 86.582958 -1.565452 -5.634529 -19.929440 1.187300 0.000000 -35.457800
-0.113213 15.697157 0.368257 24.153092 78.299280 46.885961 -9.546429 -0.122860 -5.167087 -13.152310 10.802857 -41.613481 -2.145691 3.704408 56.201888 2.742802 11.414203 -25.687058 -3.998100 0.000001 -47.861600 10.907101 3.271183 -4.580386 7.750969 -8.467907 -61.653175 -1.905006 -7.179789 84.247064 -1.708087 -6.190228 -19.832092 1.274900 -0.000000 -35.139700
0.092358 15.800136 0.444545 23.223822 77.818022 45.968456 -9.606339 0.004971 -5.098005 -12.784719 10.932248 -39.900102 -2.160059 3.518007 54.413766 2.726950 11.855483 -24.310163 -3.797800 0.000000 -49.167900 10.702721 3.303479 -4.346052 8.315908 -8.095750 -62.388603 -1.575138 -7.001890 81.653987 -1.859828 -6.764214 -19.637921 1.344900 -0.000000 -34.944100
0.301409 15.906885 0.524356 22.229955 77.311031 45.017392 -9.674452 0.134279 -5.014322 -12.388685 11.065159 -38.258497 -2.152896 3.341060 52.633649 2.682950 12.215950 -22.622823 -3.482200 0.000001 -50.918400 10.493196 3.301508 -4.101620 8.939050 -7.721489 -62.995129 -1.230449 -6.802790 78.800860 -2.014890 -7.319706 -19.361922 1.389100 0.000000 -34.855100
0.513537 16.016369 0.608122 21.193028 76.778436 44.047261 -9.752343 0.266130 -4.925613 -11.964197 11.234797 -36.697254 -2.128070 3.178892 50.886173 2.606096 12.453318 -20.626115 -3.046599 0.000000 -53.154700 10.280699 3.263083 -3.849991 9.623663 -7.343702 -63.453881 -0.871283 -6.582161 75.686739 -2.166362 -7.817012 -19.019887 1.401299 -0.000000 -34.870600
0.728215 16.127441 0.696243 20.140742 76.221755 43.076663 -9.840732 0.401376 -4.841869 -11.511609 11.472129 -35.218975 -2.090357 3.035601 49.191441 2.493911 12.529352 -18.332955 -2.500700 0.000000 -55.853099 10.067838 3.187223 -3.594582 10.369237 -6.963287 -63.746875 -0.497723 -6.339675 72.315106 -2.306871 -8.218347 -18.629111 1.378100 -0.000001 -34.972800
0.944981 16.238919 0.788975 19.100013 75.643143 42.124486 -9.940234 0.540705 -4.771242 -11.031670 11.801456 -33.823208 -2.044963 2.913980 47.563678 2.347364 12.415473 -15.769001 -1.869500 -0.000000 -58.913500 9.856451 3.074387 -3.338285 11.173449 -6.583087 -63.860912 -0.109820 -6.074208 68.693809 -2.429167 -8.492546 -18.202135 1.319200 -0.000000 -35.165200
1.163463 16.349606 0.886423 18.096099 75.045758 41.209161 -10.051207 0.684368 -4.719741 -10.525343 12.238069 -32.507120 -1.996818 2.815548 46.013975 2.171478 12.096548 -12.972966 -1.192700 -0.000001 -62.157999 9.647789 2.926805 -3.083191 12.031588 -6.206991 -63.788577 0.291986 -5.783600 64.836611 -2.527049 -8.620588 -17.744929 1.226900 0.000000 -35.476100
1.383271 16.458183 0.988502 17.152243 74.435223 40.348798 -10.173220 0.831722 -4.690911 -9.994302 12.786226 -31.267395 -1.949993 2.740337 44.551549 1.975600 11.574662 -9.995415 -0.519700 -0.000000 -65.357900 9.442922 2.748529 -2.830276 12.936102 -5.839352 -63.528941 0.706631 -5.464612 60.763925 -2.596665 -8.600899 -17.259100 1.105900 -0.000000 -35.942400
1.604165 16.563371 1.095001 16.287609 73.818439 39.560384 -10.305107 0.981319 -4.685582 -9.442171 13.438941 -30.102007 -1.907510 2.687006 43.185387 1.773046 10.872721 -6.898328 0.098200 -0.000000 -68.262700 9.242850 2.545804 -2.579017 13.875352 -5.484366 -63.088926 1.131818 -5.112867 56.503767 -2.637320 -8.451483 -16.742108 0.963200 0.000000 -36.612900
1.825827 16.663852 1.205546 15.515902 73.203445 38.853959 -10.445169 1.131009 -4.703085 -8.872763 14.182478 -29.006575 -1.871498 2.653197 41.926054 1.579368 10.034334 -3.757133 0.617000 0.000000 -70.613400 9.048697 2.327056 -2.329386 14.835967 -5.149316 -62.480088 1.563728 -4.723568 52.095770 -2.652006 -8.208104 -16.196186 0.807200 0.000000 -37.501100
2.048079 16.758321 1.319726 14.865242 72.599959 38.268011 -10.588649 1.277583 -4.738990 -8.302499 14.984100 -27.994574 -1.842106 2.635078 40.789473 1.410495 9.126954 -0.645190 1.011400 -0.000000 -72.290900 8.863439 2.104018 -2.072970 15.783548 -4.823096 -61.734800 1.993500 -4.291212 47.582440 -2.650615 -7.936755 -15.612362 0.644100 -0.000000 -38.713300
2.270498 16.845621 1.436974 14.336089 72.017022 37.791750 -10.733250 1.418283 -4.792725 -7.733626 15.829751 -27.053824 -1.820390 2.629630 39.790850 1.278518 8.227616 2.337649 1.275500 0.000000 -73.112500 8.689004 1.888471 -1.814709 16.702752 -4.523055 -60.867443 2.412301 -3.814119 43.034090 -2.643584 -7.694638 -15.017437 0.483901 -0.000000 -40.119600
